<?xml version="1.0" encoding="UTF-8"?>
<svg id="Layer_1" data-name="Layer 1" xmlns="http://www.w3.org/2000/svg" viewBox="0 0 500 500">
  <defs>
    <style>
      .cls-1 {
        fill: #5d5491;
      }
    </style>
  </defs>
  <path class="cls-1" d="M255.85,105.87c1.41,1.33,3,3.85,4.25,5.44l27.01,59.76c1.22,1.28,8.34-.71,10.68-.7,6.63.04,15.26,2.76,21.03,5.96,28.26,15.67,30.62,55.3,4.47,73.92l26.12,59.52c9.29,29.83-27.77,48.95-47.21,24.45-25.37-4.72-52.39-14.7-78.46-13.09-2.19.14-4.3,1.01-6.56.65,4.41,8.94,6.16,17.07,1.99,26.58-3.97,9.06-12.54,13.57-21.45,16.72l30.43,68.2c10.98,31.51-29.16,50.94-47.48,24.09l-46.3-102.31c-1.34-.85-10.44,4.22-12.56,5.01-18.89,6.98-41.06,2.04-52.96-14.67-5.86-8.23-21.98-44.36-22.86-53.92-1.84-19.95,8.56-36.13,26.04-44.99,24.59-12.46,53.5-21.14,77.4-34.65,32.07-18.11,44.07-50.37,62.01-80.34-6.25-25.52,25.21-43.87,44.41-25.66ZM235.2,116.38c-3.53.72-6.57,4.73-6.76,8.29-.18,3.36,4.03,11.46,5.56,15.04,26.42,61.43,55.77,121.68,82.16,183.14,5.53,9.23,18.56,4.35,17.03-5.69-.56-3.64-7.31-16.86-9.27-21.33-25.13-57.22-51.79-113.79-76.73-171.09-1.91-5.31-5.79-9.62-12-8.35ZM220.93,152.99c-1.11-.24-1.24.32-1.78,1.03-6.77,8.91-12.75,22.93-19.04,32.8-11.06,17.35-25.86,32.23-44.41,41.59l36.4,81.55c4.6-1.4,9.17-2.9,13.89-3.93,15.33-3.32,30.35-3.3,45.8-.85,13.55,2.14,27.09,6.24,40.66,8.52l-71.52-160.7ZM316.28,233.96c1.81-3.28,4.4-5.91,5.78-9.53,7.01-18.37-7.45-37.54-27.09-35.93l20.04,45.1,1.28.36ZM139.95,236.5l-3.69.9c-18.18,9.43-39.92,15.85-57.74,25.51-9.04,4.9-15.11,13.81-15.1,24.3,0,7.57,11.68,32.08,15.63,39.98,6.86,13.7,17.64,21.99,33.96,17.3,19.42-5.57,40.81-20.14,60.48-26.52l2.13-1.45-35.67-80.02ZM190.21,349.19c13.51-4.26,17.39-10.56,9.05-23.03l-15.94,6.24,6.89,16.79ZM165.57,340.56c-1.05.15-12.73,5.43-13.89,6.23-.48.33-1.05.47-.76,1.19l44.8,100.06c6.14,9.68,19.98,2.17,15.84-8.25l-44.57-99.04c-.45-.38-.9-.26-1.42-.18Z"/>
  <path class="cls-1" d="M360.4,127.88c-2.54-2.26-3.75-8.11-1.8-11.06,10.22-13.38,19.31-27.68,29.59-41.01,1.76-2.28,3.99-6.09,6.52-7.23,8.35-3.77,15.76,4.35,11.64,12.18-11.36,13.69-21.02,32.37-32.7,45.39-3.38,3.77-9.15,5.38-13.25,1.72Z"/>
  <path class="cls-1" d="M398.06,236.04c2.57-2.57,6.52-2.38,9.86-1.8,16.52,2.84,35.83,12.66,52.65,16.24,9.43,3.93,6.39,17.22-3.89,16.99l-55.7-16.99c-5.65-2.79-7.56-9.78-2.92-14.43Z"/>
  <path class="cls-1" d="M440.34,149.4c9.95-1.61,15,10.24,6.65,15.94l-53.5,22.87c-9.58,2.41-14.97-10.31-7.15-15.81l53.99-23Z"/>
  <path class="cls-1" d="M126.01,262.22c8.54-.07,12.05,10.09,5.83,15.63l-36.98,16.28c-8.86,1.39-13.83-9.99-6.88-15.59,11.02-4.29,22.99-11.78,34.02-15.43,1.13-.37,2.86-.88,4.01-.89Z"/>
  <path class="cls-1" d="M139.24,294.5c4.56-.62,9.79,2.99,10.21,7.67.46,5.18-1.91,7.35-6.07,9.58-5.2,2.79-27.43,13.15-32.19,14.13-10.62,2.18-15.96-7.58-8.77-14.94l36.82-16.44Z"/>
</svg>