<?xml version="1.0" encoding="UTF-8"?>
<svg id="Layer_1" data-name="Layer 1" xmlns="http://www.w3.org/2000/svg" viewBox="0 0 500 500">
  <defs>
    <style>
      .cls-1 {
        fill: #5d5491;
      }
    </style>
  </defs>
  <path class="cls-1" d="M425.68,334.55c-6.51,51.1-58.13,101.38-109.18,107.29-3.71,28.21,13.32,59.2-25.68,62.51-85.51,7.26-181.13-5.59-267.71-.08-8.53-.4-15.09-4.55-20.02-11.21l-.69-360.12c4.87-22.01,58.06-9.48,75.34-12.77-1.98-20.97,15.56-26.61,33.47-24.55-.37-7.27-1.11-21.98,6.68-25.7,12.37-5.9,64.22,1.77,80.96-.66,9.47,2.78,5.23,18.68,6.01,26.36,18.78-2.21,35.74,2.84,35.79,24.45,2,2.02,48.2-.97,56.83.05,29.29,3.45,15.14,40.81,19.89,60.47,55.65,11.75,95.55,51.82,108.3,107.06-1.34,14.82,1.83,32.5,0,46.9ZM191.49,82.21h-66.91v29.03h66.91v-29.03ZM91.13,111.24v53.59h132.7l3.35-3.35v-46.9c0-6.05-17.54-6.39-22.31-5.6-.27,4.82,1.96,13.49-3.65,15.33l-88.04-.98-2-14.32-20.05,2.21ZM77.75,133.57H18.64l-3.35,3.35v351.72h284.37l3.35-3.35v-41.31h-15.62c0,5.01,1.94,29.03-5.56,29.03H34.26l-3.35-3.35V154.78c1.79-1.76,8.3-5.58,10.04-5.58h36.8v-15.63ZM303.01,180.46v-43.55l-3.35-3.35h-59.1v17.86h32.34c16.94,0,14.69,15.63,14.49,29.04h15.62ZM44.29,165.95v293.66h229.72l-2.19-16.79c-137.1-30.53-149.57-212.99-12.96-258.54,6.49-2.16,13.63.47,15.18-7.16,4.58-22.64-19.05-12.47-33.48-14.53,1.5,20.45-9.11,13.43-21.1,13.31-45.37-.45-90.78.54-136.16.13-7.09.01-4.37-8.04-6.61-11.25-2.51-3.6-30.85-3.87-32.4,1.18ZM273.48,194.44c-130.61,17.69-128.15,223.86,8.38,236.1,174.85,15.68,173.03-260.67-8.38-236.1Z"/>
  <path class="cls-1" d="M74.4,401.54h98.13c4.43,0,4.43,13.4,0,13.4h-98.13c-.4,0-5.18-4.7-5.39-5.89l5.39-7.51Z"/>
  <path class="cls-1" d="M72.17,238.52c-11.05-3.11.61-12.6,11.05-13.51,17.76-1.54,58.72-2.01,75.81.32,9,1.23,10.54,4.71,7.94,13.18h-94.79Z"/>
  <path class="cls-1" d="M71.06,343.48h76.95c4.43,0,4.43,13.4,0,13.4h-73.6c-4.28,0-6.15-9.6-3.35-13.4Z"/>
  <path class="cls-1" d="M143.54,285.42l3.48,9.84c-.42,1.91-4.42,2.63-6.22,2.95-8.7,1.51-59.03,2.2-65.93.16-2.17-.64-3.79-2.25-5.06-4.06l1.24-8.89h72.49Z"/>
  <path class="cls-1" d="M280.21,207.89c131.13-15.86,163.78,171.54,43.86,204.7-145.91,40.35-187-187.38-43.86-204.7ZM287.39,220.65c-6.04-.18-29.76,4.91-30.86,10.25l1.93,8.76-3.45,5.56-15.13-6.46-19.25,20.68,8.64,11.19-7.63,5.81-10.05-4.42c-1.34,5.96-10.53,29.55-6.6,33.38.75.73,11.56-.59,12.78,5.65-2.22,8.18-7.36,8.66-15.13,7.88l8.85,30.34c16.6-4.57,24.61,2.83,8.84,13.33-.43,5.52,17.79,23.91,23.43,23.46,3.69-6.57,6.7-10.25,14.49-6.7l-1.18,15.55,30.3,8.86c-1.06-9.4.62-16.44,11.35-12.46l2.14,10.13c11.79,1.65,22.57-2.89,33.37-6.64.54-.69-9.58-12.65-.85-15.42,7.93-2.52,10.47,5.83,13.41,6.38,4.03.75,18.5-17.72,23.09-21.07-15.5-12.83-9.65-20.06,8.95-14.51l6.76-30.09c-.36-2.18-11.22.21-13.15-7.11l1.87-6.43,11.23-1.06-7.84-31.24-2.2-2.2c-14.17,12.57-21.67-4.99-5.62-12.33l-23.38-23.41c-4.03,7.85-12.71,14.74-16.76,3.41l3.46-10.19-32.41-8.91-2.08,12.45-8.88.75-2.43-13.2Z"/>
  <path class="cls-1" d="M324.65,272.38c2.5-.73,5.28-.94,7.48.62,11.04,7.85-16.57,24.54-19.17,30.38-.33.74-.81,15.38-.6,16.17,1.2,4.62,34.02,28.36,18.47,32.84-7.66,2.21-19.37-18.4-25.61-21.17-9.73-4.32-28.23,2.97-29.12-17.94-.96-22.67,17.24-15.8,26.89-20.08,5.61-2.49,15.83-19.12,21.67-20.82Z"/>
</svg>