<?xml version="1.0" encoding="UTF-8"?>
<svg id="Layer_1" data-name="Layer 1" xmlns="http://www.w3.org/2000/svg" viewBox="0 0 434 394">
  <defs>
    <style>
      .cls-1 {
        fill: #5d5491;
      }
    </style>
  </defs>
  <path class="cls-1" d="M189.79,34.55c3.58-21.63,54.02-29.85,71.72-31.97,34.31-4.09,73.57-4.02,107.73,1.01,16.43,2.42,53.24,9.7,62.06,24.93,3.07,5.31,1.75,8.72,1.84,13.89,1.56,86.4-.95,172.81.05,259.27-1.67,14.83-22.66,22.14-34.96,25.67-32.01,9.18-69.38,10.36-102.6,9.96-9.68-.12-5.73.22-13.87,3.62-5.54,2.32-11.25,3.91-16.88,5.97-.53,10.68.66,16.31-7.9,23.74-23.95,20.78-95.32,23.7-126.57,22.87-17.75-.47-37.55-2.38-55.02-5.55-15.26-2.77-51.7-10.58-54.24-29.24-1.03-7.55-1.11-35.48.13-42.77,1.93-11.34,17.46-16.73,27.03-19.54-14.17-10.16-7.04-28.5-8.91-43.38-11.96-3.67-32.02-9.74-36.34-22.98-2.25-6.9-2.25-40.53,0-47.43,6.63-20.3,51.09-27.42,69.52-29.77,38.84-4.95,78.48-3.3,117.2,1.65V34.55ZM209.23,39.28c15.6,8.23,34.78,11.85,52.28,14.06,38.77,4.88,87.94,4.35,126-4.71,3.95-.94,28.37-7.6,27.23-12.28-4.18-3.71-9.72-5.36-14.94-7.06-42.23-13.75-140.75-15.39-181.33,2.32-2.06.9-11.07,4.53-9.24,7.68ZM414.74,59.59c-18.73,6.96-38.53,11.01-58.44,13.17-34.23,3.72-75.64,2.93-109.56-2.9-13.19-2.27-25.88-5.99-38.5-10.27v32.95c0,5.18,22.58,11.21,27.23,12.31,44.4,10.58,119.62,11.05,163.03-3.07,5.78-1.88,11.82-4.03,16.24-8.36v-33.83ZM414.74,115.83c-21.47,7.89-44.37,12.26-67.23,14.05-35.69,2.8-79.85,1.65-114.68-6.57-8.4-1.98-16.34-5.1-24.59-7.48v32.95c0,4.85,20.16,10.52,24.42,11.61,43.85,11.22,110.13,11.14,154.13.86,9.5-2.22,20.55-5.08,27.96-11.59v-33.83ZM22.23,186.38c-.42.45-1.27,1.79-.77,2.39,10.85,6.8,24.7,9.79,37.24,12.01,42.32,7.51,97.24,7.76,139.17-1.75,9.99-2.27,22.5-4.99,29.7-12.47-9.9-7.26-23.97-10.03-35.99-12.32-37.68-7.2-84.53-7.76-122.48-2.05-9.96,1.5-40.43,7.29-46.86,14.19ZM414.74,172.07c-18.48,6.85-38.01,10.93-57.66,13.08-28.37,3.1-62,3.02-90.4.1-7.02-.72-14.18-2.17-21.11-3.49-1.36.56.45,2.02.45,2.18v37.35c43.96,3.45,89.3,6.47,132.87-2.02,11.85-2.31,26.46-5.69,35.85-13.36v-33.83ZM21.07,208.98v16.26c12.4,8.72,30.39,12.1,45.38,14.37,35.66,5.41,80.03,5.54,115.63-.12,8.57-1.36,41.57-7.78,45.05-15.59.36-.81.61-8.68.52-10.08-.05-.83.05-1.7-.21-2.51l-2.02-1.46c-18.66,7.53-38.92,11.16-58.93,13.18-35.11,3.55-75.76,2.67-110.44-3.78-12.01-2.24-23.87-5.24-34.99-10.27ZM414.74,228.31c-40.16,14.75-84.5,16.05-127.03,14.99-1.5-.04-2.58-.29-3.9-.93v17.57c9.39,3.23,18.09,10.65,18.95,21.12,23.7.11,47.48-.63,70.84-4.7,13.61-2.37,30.26-5.58,41.14-14.22v-33.83ZM153.76,262.58c29.13-.89,59.26-1.04,87.54-8.67,7.9-2.13,16.9-4.83,23.16-10.22-.02-3.79-22.07-3.18-25.8-4.62-18.32,13.78-44.52,18.05-67,20.77-5.23.63-11.47.36-16.61.98-1.3.16-2.69.7-1.3,1.76ZM264.48,265.22c-13.98,6.4-30.15,10-45.38,12.18-39.35,5.63-86.21,5.37-125.26-1.91-11.96-2.23-23.99-5-34.99-10.27v16.26c3.64,3.95,10.03,6.03,15.15,7.7,43.27,14.15,132.79,14.53,175.77-.44,5.05-1.76,11.04-4.23,14.71-8.14v-15.38ZM414.74,284.55c-35.71,13.36-74.55,15.54-112.48,14.94v18.45c31.57-.14,67.95.1,98.01-10.51,2.57-.91,14.47-5.8,14.47-8.38v-14.5ZM77.32,309.15c-.2,8.84-1.61,10.24,6.42,14.22,28.58,14.17,95.47,15.38,127.57,13.01,15.03-1.11,59.21-6.75,69.89-16.23,4.6-4.08,1.91-5.69,1.66-10.57-.14-2.6,1.85-5.06-.36-6.57-31.05,12.78-66.77,15.16-100.17,15.79-30.32.57-61.88-.9-92-6.42-4.38-.8-8.82-1.74-13.01-3.24ZM58.85,313.55c-6.2.44-12.18,2.82-17.57,5.71,1.6,2.37,17.71,7.27,18.45,6.59l-.88-12.3ZM39.52,339.03v17.14c4.77,4.79,11.49,6.68,17.78,8.58,44.2,13.35,124.56,13.43,168.7.4,6.53-1.93,22.57-5.76,19.6-14.67-38.37,6.66-79.76,6.7-118.69,4.33-29.54-1.8-59.4-6.12-87.39-15.77Z"/>
</svg>